<svg width="551" height="90" viewBox="0 0 551 90" fill="none" xmlns="http://www.w3.org/2000/svg">
<path d="M56.896 50.48C56.4267 54.5333 54.9973 58.1173 52.608 61.232C50.2613 64.304 47.1467 66.6933 43.264 68.4C39.424 70.1067 35.0293 70.96 30.08 70.96C24.6187 70.96 19.8187 69.9147 15.68 67.824C11.584 65.7333 8.384 62.832 6.08 59.12C3.776 55.3653 2.624 50.992 2.624 46C2.624 41.008 3.776 36.656 6.08 32.944C8.384 29.1893 11.584 26.2667 15.68 24.176C19.8187 22.0853 24.6187 21.04 30.08 21.04C35.0293 21.04 39.424 21.8933 43.264 23.6C47.1467 25.3067 50.2613 27.696 52.608 30.768C54.9973 33.84 56.4267 37.424 56.896 41.52H45.952C45.5253 39.2587 44.608 37.3173 43.2 35.696C41.792 34.032 39.9787 32.752 37.76 31.856C35.5413 30.96 32.96 30.512 30.016 30.512C26.6453 30.512 23.7227 31.152 21.248 32.432C18.816 33.6693 16.9387 35.4613 15.616 37.808C14.2933 40.112 13.632 42.8427 13.632 46C13.632 49.1573 14.2933 51.9093 15.616 54.256C16.9387 56.56 18.816 58.352 21.248 59.632C23.7227 60.8693 26.6453 61.488 30.016 61.488C32.96 61.488 35.5413 61.0613 37.76 60.208C39.9787 59.312 41.792 58.0533 43.2 56.432C44.608 54.768 45.5253 52.784 45.952 50.48H56.896ZM63.032 70V33.584H73.528V64.368L70.904 63.664L92.856 33.584H106.616V70H96.12V38.64L98.744 39.408L76.408 70H63.032ZM125.985 37.296H136.673V70H125.985V37.296ZM111.521 33.584H151.137V41.776H111.521V33.584ZM156.032 70V33.584H166.528V64.368L163.904 63.664L185.856 33.584H199.616V70H189.12V38.64L191.744 39.408L169.408 70H156.032ZM243.186 22V31.664H214.13L219.058 26.736V70H208.178V22H243.186ZM241.97 33.584H252.658V45.168L252.21 46.576V55.344L252.658 57.968V80.56H241.97V33.584ZM248.946 51.824C249.671 47.9413 250.93 44.5707 252.722 41.712C254.556 38.8107 256.839 36.5707 259.57 34.992C262.343 33.4133 265.415 32.624 268.786 32.624C272.37 32.624 275.506 33.4347 278.194 35.056C280.924 36.6347 283.058 38.8747 284.594 41.776C286.13 44.6347 286.898 47.984 286.898 51.824C286.898 55.6213 286.13 58.9707 284.594 61.872C283.058 64.7307 280.924 66.9707 278.194 68.592C275.506 70.1707 272.37 70.96 268.786 70.96C265.372 70.96 262.3 70.1707 259.57 68.592C256.882 67.0133 254.62 64.7947 252.786 61.936C250.951 59.0347 249.671 55.664 248.946 51.824ZM276.082 51.824C276.082 49.6907 275.634 47.8133 274.738 46.192C273.884 44.528 272.69 43.248 271.154 42.352C269.618 41.4133 267.847 40.944 265.842 40.944C263.836 40.944 261.938 41.4133 260.146 42.352C258.354 43.248 256.775 44.528 255.41 46.192C254.087 47.8133 253.042 49.6907 252.274 51.824C253.042 53.9573 254.087 55.8347 255.41 57.456C256.775 59.0773 258.354 60.3573 260.146 61.296C261.938 62.192 263.836 62.64 265.842 62.64C267.847 62.64 269.618 62.192 271.154 61.296C272.69 60.3573 273.884 59.0773 274.738 57.456C275.634 55.8347 276.082 53.9573 276.082 51.824ZM301.649 81.52C299.259 81.52 297.105 81.2213 295.185 80.624C293.265 80.0267 291.451 79.152 289.745 78V70.32C291.537 71.472 293.243 72.304 294.865 72.816C296.486 73.328 298.278 73.584 300.241 73.584C301.99 73.584 303.547 73.1787 304.913 72.368C306.278 71.6 307.409 70.2133 308.305 68.208L323.472 33.584H334.801L316.625 71.664C315.515 74.0533 314.171 75.9733 312.593 77.424C311.014 78.8747 309.286 79.92 307.409 80.56C305.574 81.2 303.654 81.52 301.649 81.52ZM303.953 67.696L287.889 33.584H299.665L314.385 67.696H303.953ZM379.991 33.584V70H369.303V36.784L374.231 41.648H344.855L349.783 36.784V70H339.095V33.584H379.991ZM428.928 33.584V70H418.24V36.784L423.168 41.648H393.792L398.72 36.784V70H388.032V33.584H428.928Z" fill="white"/>
<g clip-path="url(#clip0_100_4128)">
<path d="M448 35H456.75L483 5.04L509.25 35H518L487.41 0H478.66L448 35ZM456.75 70H474.25V48.16C474.25 46.9467 474.67 45.92 475.51 45.08C476.35 44.24 477.4 43.7967 478.66 43.75H487.41C488.577 43.75 489.603 44.1933 490.49 45.08C491.377 45.9667 491.797 46.9933 491.75 48.16V70H509.25V40.67L483 11.69L456.75 40.67V70ZM504.91 13.37L513.66 23.38V4.41H504.91V13.37Z" fill="white"/>
</g>
<defs>
<clipPath id="clip0_100_4128">
<rect width="70" height="70" fill="white" transform="translate(448)"/>
</clipPath>
</defs>
</svg>
