<svg width="516" height="106" viewBox="0 0 516 106" fill="none" xmlns="http://www.w3.org/2000/svg">
<path d="M11.6 9.16C14.24 9.16 16.36 10.08 17.96 11.92C19.5867 13.76 20.4 16.5333 20.4 20.24C20.4 22.6667 20.0267 24.72 19.28 26.4C18.56 28.0533 17.5333 29.3067 16.2 30.16C14.8933 30.9867 13.3467 31.4 11.56 31.4C10.4667 31.4 9.49333 31.2533 8.64 30.96C7.78667 30.6667 7.05333 30.2933 6.44 29.84C5.85333 29.36 5.34667 28.84 4.92 28.28H4.68C4.73333 28.7333 4.78667 29.3067 4.84 30C4.89333 30.6933 4.92 31.2933 4.92 31.8V40.6H1.4V9.56H4.28L4.76 12.48H4.92C5.34667 11.8667 5.85333 11.3067 6.44 10.8C7.05333 10.2933 7.77333 9.89333 8.6 9.6C9.45333 9.30667 10.4533 9.16 11.6 9.16ZM10.96 12.12C9.52 12.12 8.36 12.4 7.48 12.96C6.6 13.4933 5.96 14.3067 5.56 15.4C5.16 16.4933 4.94667 17.88 4.92 19.56V20.24C4.92 22 5.10667 23.4933 5.48 24.72C5.85333 25.9467 6.48 26.88 7.36 27.52C8.26667 28.16 9.49333 28.48 11.04 28.48C12.3467 28.48 13.4133 28.12 14.24 27.4C15.0933 26.68 15.72 25.7067 16.12 24.48C16.5467 23.2267 16.76 21.8 16.76 20.2C16.76 17.7467 16.28 15.7867 15.32 14.32C14.3867 12.8533 12.9333 12.12 10.96 12.12ZM36.0094 9.16C36.4094 9.16 36.836 9.18667 37.2894 9.24C37.7694 9.26667 38.1827 9.32 38.5294 9.4L38.0894 12.64C37.7427 12.56 37.356 12.4933 36.9294 12.44C36.5294 12.3867 36.1427 12.36 35.7694 12.36C34.9427 12.36 34.156 12.5333 33.4094 12.88C32.6627 13.2267 31.996 13.72 31.4094 14.36C30.8227 14.9733 30.356 15.72 30.0094 16.6C29.6894 17.48 29.5294 18.4667 29.5294 19.56V31H26.0094V9.56H28.8894L29.2894 13.48H29.4494C29.9027 12.68 30.4494 11.96 31.0894 11.32C31.7294 10.6533 32.4627 10.1333 33.2894 9.76C34.116 9.36 35.0227 9.16 36.0094 9.16ZM60.3916 20.24C60.3916 22.0267 60.1516 23.6133 59.6716 25C59.2182 26.36 58.5516 27.52 57.6716 28.48C56.8182 29.44 55.7649 30.1733 54.5116 30.68C53.2849 31.16 51.9116 31.4 50.3916 31.4C48.9782 31.4 47.6716 31.16 46.4716 30.68C45.2716 30.1733 44.2316 29.44 43.3516 28.48C42.4716 27.52 41.7782 26.36 41.2716 25C40.7916 23.6133 40.5516 22.0267 40.5516 20.24C40.5516 17.8667 40.9516 15.8667 41.7516 14.24C42.5516 12.5867 43.6982 11.3333 45.1916 10.48C46.6849 9.6 48.4582 9.16 50.5116 9.16C52.4582 9.16 54.1649 9.6 55.6316 10.48C57.1249 11.3333 58.2849 12.5867 59.1116 14.24C59.9649 15.8667 60.3916 17.8667 60.3916 20.24ZM44.1916 20.24C44.1916 21.92 44.4049 23.3867 44.8316 24.64C45.2849 25.8667 45.9782 26.8133 46.9116 27.48C47.8449 28.1467 49.0316 28.48 50.4716 28.48C51.9116 28.48 53.0982 28.1467 54.0316 27.48C54.9649 26.8133 55.6449 25.8667 56.0716 24.64C56.5249 23.3867 56.7516 21.92 56.7516 20.24C56.7516 18.5333 56.5249 17.08 56.0716 15.88C55.6182 14.68 54.9249 13.76 53.9916 13.12C53.0849 12.4533 51.8982 12.12 50.4316 12.12C48.2449 12.12 46.6582 12.84 45.6716 14.28C44.6849 15.72 44.1916 17.7067 44.1916 20.24ZM63.4503 40.6C62.7836 40.6 62.197 40.5467 61.6903 40.44C61.1836 40.36 60.7436 40.2533 60.3703 40.12V37.28C60.7703 37.3867 61.1836 37.48 61.6103 37.56C62.037 37.64 62.5036 37.68 63.0103 37.68C63.8636 37.68 64.5703 37.44 65.1303 36.96C65.6903 36.5067 65.9703 35.6267 65.9703 34.32V9.56H69.4903V34.2C69.4903 35.5333 69.277 36.68 68.8503 37.64C68.4236 38.6 67.7703 39.3333 66.8903 39.84C66.0103 40.3467 64.8636 40.6 63.4503 40.6ZM65.6903 3.76C65.6903 2.98666 65.8903 2.42666 66.2903 2.08C66.6903 1.70666 67.1836 1.52 67.7703 1.52C68.3036 1.52 68.7703 1.70666 69.1703 2.08C69.597 2.42666 69.8103 2.98666 69.8103 3.76C69.8103 4.50666 69.597 5.06666 69.1703 5.44C68.7703 5.81333 68.3036 6 67.7703 6C67.1836 6 66.6903 5.81333 66.2903 5.44C65.8903 5.06666 65.6903 4.50666 65.6903 3.76ZM84.5628 9.16C86.4028 9.16 87.9761 9.56 89.2828 10.36C90.6161 11.16 91.6295 12.2933 92.3228 13.76C93.0428 15.2 93.4028 16.8933 93.4028 18.84V20.96H78.7228C78.7761 23.3867 79.3895 25.24 80.5628 26.52C81.7628 27.7733 83.4295 28.4 85.5628 28.4C86.9228 28.4 88.1228 28.28 89.1628 28.04C90.2295 27.7733 91.3228 27.4 92.4428 26.92V30C91.3495 30.48 90.2695 30.8267 89.2028 31.04C88.1361 31.28 86.8695 31.4 85.4028 31.4C83.3761 31.4 81.5761 30.9867 80.0028 30.16C78.4561 29.3333 77.2428 28.1067 76.3628 26.48C75.5095 24.8267 75.0828 22.8133 75.0828 20.44C75.0828 18.0933 75.4695 16.08 76.2428 14.4C77.0428 12.72 78.1495 11.4267 79.5628 10.52C81.0028 9.61333 82.6695 9.16 84.5628 9.16ZM84.5228 12.04C82.8428 12.04 81.5095 12.5867 80.5228 13.68C79.5628 14.7467 78.9895 16.24 78.8028 18.16H89.7228C89.7228 16.9333 89.5361 15.8667 89.1628 14.96C88.7895 14.0533 88.2161 13.3467 87.4428 12.84C86.6961 12.3067 85.7228 12.04 84.5228 12.04ZM107.461 31.4C105.568 31.4 103.874 31.0133 102.381 30.24C100.914 29.4667 99.7543 28.2667 98.9009 26.64C98.0743 25.0133 97.6609 22.9333 97.6609 20.4C97.6609 17.76 98.1009 15.6133 98.9809 13.96C99.8609 12.3067 101.048 11.0933 102.541 10.32C104.061 9.54667 105.781 9.16 107.701 9.16C108.794 9.16 109.848 9.28 110.861 9.52C111.874 9.73333 112.701 10 113.341 10.32L112.261 13.24C111.621 13 110.874 12.7733 110.021 12.56C109.168 12.3467 108.368 12.24 107.621 12.24C106.181 12.24 104.994 12.5467 104.061 13.16C103.128 13.7733 102.434 14.68 101.981 15.88C101.528 17.08 101.301 18.5733 101.301 20.36C101.301 22.0667 101.528 23.52 101.981 24.72C102.434 25.92 103.114 26.8267 104.021 27.44C104.928 28.0533 106.061 28.36 107.421 28.36C108.594 28.36 109.621 28.24 110.501 28C111.408 27.76 112.234 27.4667 112.981 27.12V30.24C112.261 30.6133 111.461 30.8933 110.581 31.08C109.728 31.2933 108.688 31.4 107.461 31.4ZM125.24 28.52C125.773 28.52 126.32 28.48 126.88 28.4C127.44 28.2933 127.893 28.1867 128.24 28.08V30.76C127.866 30.9467 127.333 31.0933 126.64 31.2C125.946 31.3333 125.28 31.4 124.64 31.4C123.52 31.4 122.48 31.2133 121.52 30.84C120.586 30.44 119.826 29.76 119.24 28.8C118.653 27.84 118.36 26.4933 118.36 24.76V12.28H115.32V10.6L118.4 9.2L119.8 4.64H121.88V9.56H128.08V12.28H121.88V24.68C121.88 25.9867 122.186 26.96 122.8 27.6C123.44 28.2133 124.253 28.52 125.24 28.52ZM141.133 31.4C139.239 31.4 137.546 31.0133 136.053 30.24C134.586 29.4667 133.426 28.2667 132.573 26.64C131.746 25.0133 131.333 22.9333 131.333 20.4C131.333 17.76 131.773 15.6133 132.653 13.96C133.533 12.3067 134.719 11.0933 136.213 10.32C137.733 9.54667 139.453 9.16 141.373 9.16C142.466 9.16 143.519 9.28 144.533 9.52C145.546 9.73333 146.373 10 147.013 10.32L145.933 13.24C145.293 13 144.546 12.7733 143.693 12.56C142.839 12.3467 142.039 12.24 141.293 12.24C139.853 12.24 138.666 12.5467 137.733 13.16C136.799 13.7733 136.106 14.68 135.653 15.88C135.199 17.08 134.973 18.5733 134.973 20.36C134.973 22.0667 135.199 23.52 135.653 24.72C136.106 25.92 136.786 26.8267 137.693 27.44C138.599 28.0533 139.733 28.36 141.093 28.36C142.266 28.36 143.293 28.24 144.173 28C145.079 27.76 145.906 27.4667 146.653 27.12V30.24C145.933 30.6133 145.133 30.8933 144.253 31.08C143.399 31.2933 142.359 31.4 141.133 31.4ZM155.272 9.56V31H151.752V9.56H155.272ZM153.552 1.52C154.085 1.52 154.552 1.70666 154.952 2.08C155.378 2.42666 155.592 2.98666 155.592 3.76C155.592 4.50666 155.378 5.06666 154.952 5.44C154.552 5.81333 154.085 6 153.552 6C152.965 6 152.472 5.81333 152.072 5.44C151.672 5.06666 151.472 4.50666 151.472 3.76C151.472 2.98666 151.672 2.42666 152.072 2.08C152.472 1.70666 152.965 1.52 153.552 1.52ZM169.224 28.52C169.757 28.52 170.304 28.48 170.864 28.4C171.424 28.2933 171.877 28.1867 172.224 28.08V30.76C171.851 30.9467 171.317 31.0933 170.624 31.2C169.931 31.3333 169.264 31.4 168.624 31.4C167.504 31.4 166.464 31.2133 165.504 30.84C164.571 30.44 163.811 29.76 163.224 28.8C162.637 27.84 162.344 26.4933 162.344 24.76V12.28H159.304V10.6L162.384 9.2L163.784 4.64H165.864V9.56H172.064V12.28H165.864V24.68C165.864 25.9867 166.171 26.96 166.784 27.6C167.424 28.2133 168.237 28.52 169.224 28.52ZM173.157 9.56H176.917L181.557 21.76C181.824 22.48 182.064 23.1733 182.277 23.84C182.517 24.5067 182.731 25.16 182.917 25.8C183.104 26.4133 183.251 27.0133 183.357 27.6H183.517C183.677 26.9333 183.931 26.0667 184.277 25C184.624 23.9067 184.984 22.8133 185.357 21.72L189.717 9.56H193.517L184.277 33.96C183.771 35.2933 183.171 36.4533 182.477 37.44C181.811 38.4533 180.984 39.2267 179.997 39.76C179.037 40.32 177.864 40.6 176.477 40.6C175.837 40.6 175.277 40.56 174.797 40.48C174.317 40.4267 173.904 40.36 173.557 40.28V37.48C173.851 37.5333 174.197 37.5867 174.597 37.64C175.024 37.6933 175.464 37.72 175.917 37.72C176.744 37.72 177.451 37.56 178.037 37.24C178.651 36.9467 179.171 36.5067 179.597 35.92C180.024 35.36 180.384 34.6933 180.677 33.92L181.797 31.08L173.157 9.56ZM204.508 9.16C205.921 9.16 207.188 9.42667 208.308 9.96C209.454 10.4933 210.428 11.3067 211.228 12.4H211.428L211.908 9.56H214.708V31.36C214.708 33.3867 214.361 35.08 213.668 36.44C212.974 37.8267 211.921 38.8667 210.508 39.56C209.094 40.2533 207.294 40.6 205.108 40.6C203.561 40.6 202.134 40.48 200.828 40.24C199.548 40.0267 198.401 39.6933 197.388 39.24V36C198.081 36.3467 198.841 36.64 199.668 36.88C200.494 37.1467 201.388 37.3467 202.348 37.48C203.308 37.6133 204.294 37.68 205.308 37.68C207.148 37.68 208.588 37.1333 209.628 36.04C210.694 34.9733 211.228 33.5067 211.228 31.64V30.8C211.228 30.48 211.241 30.0267 211.268 29.44C211.294 28.8267 211.321 28.4 211.348 28.16H211.188C210.441 29.2533 209.508 30.0667 208.388 30.6C207.294 31.1333 206.014 31.4 204.548 31.4C201.774 31.4 199.601 30.4267 198.028 28.48C196.481 26.5333 195.708 23.8133 195.708 20.32C195.708 18.0267 196.054 16.0533 196.748 14.4C197.468 12.72 198.481 11.4267 199.788 10.52C201.094 9.61333 202.668 9.16 204.508 9.16ZM204.988 12.12C203.788 12.12 202.761 12.44 201.908 13.08C201.081 13.72 200.441 14.6533 199.988 15.88C199.561 17.1067 199.348 18.6 199.348 20.36C199.348 23 199.828 25.0267 200.788 26.44C201.774 27.8267 203.201 28.52 205.068 28.52C206.161 28.52 207.094 28.3867 207.868 28.12C208.641 27.8267 209.281 27.3867 209.788 26.8C210.294 26.1867 210.668 25.4133 210.908 24.48C211.148 23.5467 211.268 22.44 211.268 21.16V20.32C211.268 18.3733 211.041 16.8 210.588 15.6C210.161 14.4 209.481 13.52 208.548 12.96C207.614 12.4 206.428 12.12 204.988 12.12ZM231.517 9.16C231.917 9.16 232.344 9.18667 232.797 9.24C233.277 9.26667 233.691 9.32 234.037 9.4L233.597 12.64C233.251 12.56 232.864 12.4933 232.437 12.44C232.037 12.3867 231.651 12.36 231.277 12.36C230.451 12.36 229.664 12.5333 228.917 12.88C228.171 13.2267 227.504 13.72 226.917 14.36C226.331 14.9733 225.864 15.72 225.517 16.6C225.197 17.48 225.037 18.4667 225.037 19.56V31H221.517V9.56H224.397L224.797 13.48H224.957C225.411 12.68 225.957 11.96 226.597 11.32C227.237 10.6533 227.971 10.1333 228.797 9.76C229.624 9.36 230.531 9.16 231.517 9.16ZM255.899 20.24C255.899 22.0267 255.659 23.6133 255.179 25C254.726 26.36 254.059 27.52 253.179 28.48C252.326 29.44 251.273 30.1733 250.019 30.68C248.793 31.16 247.419 31.4 245.899 31.4C244.486 31.4 243.179 31.16 241.979 30.68C240.779 30.1733 239.739 29.44 238.859 28.48C237.979 27.52 237.286 26.36 236.779 25C236.299 23.6133 236.059 22.0267 236.059 20.24C236.059 17.8667 236.459 15.8667 237.259 14.24C238.059 12.5867 239.206 11.3333 240.699 10.48C242.193 9.6 243.966 9.16 246.019 9.16C247.966 9.16 249.673 9.6 251.139 10.48C252.633 11.3333 253.793 12.5867 254.619 14.24C255.473 15.8667 255.899 17.8667 255.899 20.24ZM239.699 20.24C239.699 21.92 239.913 23.3867 240.339 24.64C240.793 25.8667 241.486 26.8133 242.419 27.48C243.353 28.1467 244.539 28.48 245.979 28.48C247.419 28.48 248.606 28.1467 249.539 27.48C250.473 26.8133 251.153 25.8667 251.579 24.64C252.033 23.3867 252.259 21.92 252.259 20.24C252.259 18.5333 252.033 17.08 251.579 15.88C251.126 14.68 250.433 13.76 249.499 13.12C248.593 12.4533 247.406 12.12 245.939 12.12C243.753 12.12 242.166 12.84 241.179 14.28C240.193 15.72 239.699 17.7067 239.699 20.24ZM279.398 9.56V31H276.518L275.998 28.16H275.838C275.385 28.9067 274.798 29.52 274.078 30C273.358 30.48 272.571 30.8267 271.718 31.04C270.865 31.28 269.971 31.4 269.038 31.4C267.331 31.4 265.891 31.1333 264.718 30.6C263.571 30.04 262.705 29.1867 262.118 28.04C261.531 26.8933 261.238 25.4133 261.238 23.6V9.56H264.798V23.36C264.798 25.0667 265.185 26.3467 265.958 27.2C266.731 28.0533 267.931 28.48 269.558 28.48C271.158 28.48 272.411 28.1867 273.318 27.6C274.251 26.9867 274.905 26.1067 275.278 24.96C275.678 23.7867 275.878 22.3733 275.878 20.72V9.56H279.398ZM296.405 9.16C299.045 9.16 301.165 10.08 302.765 11.92C304.391 13.76 305.205 16.5333 305.205 20.24C305.205 22.6667 304.831 24.72 304.085 26.4C303.365 28.0533 302.338 29.3067 301.005 30.16C299.698 30.9867 298.151 31.4 296.365 31.4C295.271 31.4 294.298 31.2533 293.445 30.96C292.591 30.6667 291.858 30.2933 291.245 29.84C290.658 29.36 290.151 28.84 289.725 28.28H289.485C289.538 28.7333 289.591 29.3067 289.645 30C289.698 30.6933 289.725 31.2933 289.725 31.8V40.6H286.205V9.56H289.085L289.565 12.48H289.725C290.151 11.8667 290.658 11.3067 291.245 10.8C291.858 10.2933 292.578 9.89333 293.405 9.6C294.258 9.30667 295.258 9.16 296.405 9.16ZM295.765 12.12C294.325 12.12 293.165 12.4 292.285 12.96C291.405 13.4933 290.765 14.3067 290.365 15.4C289.965 16.4933 289.751 17.88 289.725 19.56V20.24C289.725 22 289.911 23.4933 290.285 24.72C290.658 25.9467 291.285 26.88 292.165 27.52C293.071 28.16 294.298 28.48 295.845 28.48C297.151 28.48 298.218 28.12 299.045 27.4C299.898 26.68 300.525 25.7067 300.925 24.48C301.351 23.2267 301.565 21.8 301.565 20.2C301.565 17.7467 301.085 15.7867 300.125 14.32C299.191 12.8533 297.738 12.12 295.765 12.12ZM327.57 16.6836C327.57 18.9883 327.401 21.0521 327.062 22.875C326.737 24.6979 326.203 26.2409 325.461 27.5039C324.732 28.7669 323.788 29.7305 322.629 30.3945C321.47 31.0586 320.064 31.3906 318.41 31.3906C316.874 31.3906 315.533 31.0586 314.387 30.3945C313.254 29.7305 312.31 28.7669 311.555 27.5039C310.812 26.2409 310.253 24.6979 309.875 22.875C309.51 21.0521 309.328 18.9883 309.328 16.6836C309.328 14.3789 309.491 12.3151 309.816 10.4922C310.155 8.66927 310.682 7.13281 311.398 5.88281C312.128 4.61979 313.065 3.65625 314.211 2.99219C315.37 2.32812 316.77 1.99609 318.41 1.99609C319.96 1.99609 321.307 2.32812 322.453 2.99219C323.599 3.64323 324.549 4.60026 325.305 5.86328C326.06 7.11328 326.626 8.64974 327.004 10.4727C327.382 12.2956 327.57 14.3659 327.57 16.6836ZM312.941 16.6836C312.941 18.6367 313.039 20.3424 313.234 21.8008C313.43 23.2591 313.742 24.4766 314.172 25.4531C314.602 26.4167 315.161 27.1458 315.852 27.6406C316.555 28.1224 317.408 28.3633 318.41 28.3633C319.413 28.3633 320.266 28.1224 320.969 27.6406C321.672 27.1589 322.245 26.4362 322.688 25.4727C323.143 24.5091 323.469 23.2982 323.664 21.8398C323.872 20.3685 323.977 18.6497 323.977 16.6836C323.977 14.7305 323.872 13.0247 323.664 11.5664C323.469 10.1081 323.143 8.89714 322.688 7.93359C322.245 6.97005 321.672 6.2474 320.969 5.76562C320.266 5.28385 319.413 5.04297 318.41 5.04297C317.408 5.04297 316.555 5.28385 315.852 5.76562C315.161 6.2474 314.602 6.97005 314.172 7.93359C313.742 8.89714 313.43 10.1081 313.234 11.5664C313.039 13.0247 312.941 14.7305 312.941 16.6836ZM349.602 16.6836C349.602 18.9883 349.432 21.0521 349.094 22.875C348.768 24.6979 348.234 26.2409 347.492 27.5039C346.763 28.7669 345.819 29.7305 344.66 30.3945C343.501 31.0586 342.095 31.3906 340.441 31.3906C338.905 31.3906 337.564 31.0586 336.418 30.3945C335.285 29.7305 334.341 28.7669 333.586 27.5039C332.844 26.2409 332.284 24.6979 331.906 22.875C331.542 21.0521 331.359 18.9883 331.359 16.6836C331.359 14.3789 331.522 12.3151 331.848 10.4922C332.186 8.66927 332.714 7.13281 333.43 5.88281C334.159 4.61979 335.096 3.65625 336.242 2.99219C337.401 2.32812 338.801 1.99609 340.441 1.99609C341.991 1.99609 343.339 2.32812 344.484 2.99219C345.63 3.64323 346.581 4.60026 347.336 5.86328C348.091 7.11328 348.658 8.64974 349.035 10.4727C349.413 12.2956 349.602 14.3659 349.602 16.6836ZM334.973 16.6836C334.973 18.6367 335.07 20.3424 335.266 21.8008C335.461 23.2591 335.773 24.4766 336.203 25.4531C336.633 26.4167 337.193 27.1458 337.883 27.6406C338.586 28.1224 339.439 28.3633 340.441 28.3633C341.444 28.3633 342.297 28.1224 343 27.6406C343.703 27.1589 344.276 26.4362 344.719 25.4727C345.174 24.5091 345.5 23.2982 345.695 21.8398C345.904 20.3685 346.008 18.6497 346.008 16.6836C346.008 14.7305 345.904 13.0247 345.695 11.5664C345.5 10.1081 345.174 8.89714 344.719 7.93359C344.276 6.97005 343.703 6.2474 343 5.76562C342.297 5.28385 341.444 5.04297 340.441 5.04297C339.439 5.04297 338.586 5.28385 337.883 5.76562C337.193 6.2474 336.633 6.97005 336.203 7.93359C335.773 8.89714 335.461 10.1081 335.266 11.5664C335.07 13.0247 334.973 14.7305 334.973 16.6836ZM383.996 16.7227C383.996 17.5299 383.931 18.3438 383.801 19.1641C383.684 19.9714 383.501 20.7461 383.254 21.4883C383.02 22.2174 382.714 22.901 382.336 23.5391C381.971 24.1641 381.542 24.7109 381.047 25.1797C380.552 25.6484 379.986 26.0195 379.348 26.293C378.723 26.5534 378.033 26.6836 377.277 26.6836C376.691 26.6836 376.158 26.5859 375.676 26.3906C375.207 26.1953 374.803 25.9349 374.465 25.6094C374.126 25.2839 373.846 24.9128 373.625 24.4961C373.417 24.0664 373.273 23.6237 373.195 23.168H373.117C372.883 23.6497 372.59 24.1055 372.238 24.5352C371.887 24.9648 371.477 25.3424 371.008 25.668C370.552 25.9805 370.031 26.2279 369.445 26.4102C368.872 26.5924 368.241 26.6836 367.551 26.6836C366.548 26.6836 365.656 26.5013 364.875 26.1367C364.107 25.7721 363.456 25.2643 362.922 24.6133C362.388 23.9492 361.978 23.1549 361.691 22.2305C361.418 21.306 361.281 20.2839 361.281 19.1641C361.281 17.849 361.47 16.6445 361.848 15.5508C362.238 14.457 362.792 13.513 363.508 12.7188C364.237 11.9245 365.116 11.306 366.145 10.8633C367.173 10.4206 368.326 10.1992 369.602 10.1992C370.188 10.1992 370.773 10.2253 371.359 10.2773C371.945 10.3294 372.505 10.401 373.039 10.4922C373.573 10.5833 374.061 10.6875 374.504 10.8047C374.96 10.9089 375.337 11.013 375.637 11.1172L375.188 19.2422C375.174 19.5286 375.161 19.763 375.148 19.9453C375.148 20.1146 375.148 20.2513 375.148 20.3555V20.7266C375.148 21.4167 375.214 21.9831 375.344 22.4258C375.487 22.8685 375.669 23.2201 375.891 23.4805C376.112 23.7409 376.359 23.9232 376.633 24.0273C376.919 24.1185 377.212 24.1641 377.512 24.1641C378.111 24.1641 378.638 23.9688 379.094 23.5781C379.549 23.1745 379.927 22.6341 380.227 21.957C380.539 21.2799 380.773 20.4857 380.93 19.5742C381.086 18.6628 381.164 17.6992 381.164 16.6836C381.164 14.8346 380.884 13.194 380.324 11.7617C379.764 10.3164 378.99 9.09896 378 8.10938C377.01 7.11979 375.832 6.37109 374.465 5.86328C373.111 5.34245 371.633 5.08203 370.031 5.08203C367.831 5.08203 365.891 5.44661 364.211 6.17578C362.531 6.89193 361.118 7.90104 359.973 9.20312C358.84 10.4922 357.98 12.0286 357.395 13.8125C356.809 15.5833 356.516 17.5234 356.516 19.6328C356.516 21.599 356.77 23.3438 357.277 24.8672C357.798 26.3906 358.553 27.6732 359.543 28.7148C360.546 29.7565 361.783 30.5443 363.254 31.0781C364.738 31.612 366.438 31.8789 368.352 31.8789C369.146 31.8789 369.927 31.8333 370.695 31.7422C371.477 31.651 372.225 31.5273 372.941 31.3711C373.671 31.2148 374.361 31.0391 375.012 30.8438C375.663 30.6354 376.268 30.4206 376.828 30.1992V32.9531C375.708 33.4479 374.445 33.8385 373.039 34.125C371.633 34.4115 370.083 34.5547 368.391 34.5547C366.06 34.5547 363.977 34.2227 362.141 33.5586C360.318 32.8945 358.768 31.931 357.492 30.668C356.229 29.3919 355.266 27.8424 354.602 26.0195C353.938 24.1836 353.605 22.1003 353.605 19.7695C353.605 17.3216 353.99 15.043 354.758 12.9336C355.526 10.8112 356.62 8.97526 358.039 7.42578C359.471 5.8763 361.197 4.65885 363.215 3.77344C365.246 2.88802 367.518 2.44531 370.031 2.44531C372.062 2.44531 373.931 2.77734 375.637 3.44141C377.342 4.09245 378.814 5.03646 380.051 6.27344C381.301 7.4974 382.271 8.99479 382.961 10.7656C383.651 12.5234 383.996 14.5091 383.996 16.7227ZM364.406 19.2422C364.406 20.974 364.732 22.2305 365.383 23.0117C366.047 23.7799 366.932 24.1641 368.039 24.1641C368.755 24.1641 369.367 24.0208 369.875 23.7344C370.383 23.4349 370.799 23.0182 371.125 22.4844C371.451 21.9375 371.698 21.293 371.867 20.5508C372.036 19.7956 372.147 18.9688 372.199 18.0703L372.473 13.1289C372.108 13.0247 371.672 12.9336 371.164 12.8555C370.669 12.7643 370.148 12.7188 369.602 12.7188C368.638 12.7188 367.824 12.9076 367.16 13.2852C366.509 13.6628 365.975 14.1576 365.559 14.7695C365.155 15.3815 364.862 16.0781 364.68 16.8594C364.497 17.6406 364.406 18.4349 364.406 19.2422ZM413.045 9.16C415.472 9.16 417.285 9.78667 418.485 11.04C419.685 12.2667 420.285 14.2667 420.285 17.04V31H416.805V17.2C416.805 15.52 416.445 14.2533 415.725 13.4C415.032 12.5467 413.938 12.12 412.445 12.12C410.365 12.12 408.872 12.72 407.965 13.92C407.085 15.12 406.645 16.8667 406.645 19.16V31H403.165V17.2C403.165 16.08 403.005 15.1467 402.685 14.4C402.365 13.6267 401.885 13.0533 401.245 12.68C400.605 12.3067 399.778 12.12 398.765 12.12C397.325 12.12 396.192 12.4267 395.365 13.04C394.538 13.6267 393.938 14.4933 393.565 15.64C393.218 16.7867 393.045 18.2 393.045 19.88V31H389.525V9.56H392.365L392.885 12.48H393.085C393.538 11.7333 394.085 11.12 394.725 10.64C395.392 10.1333 396.125 9.76 396.925 9.52C397.725 9.28 398.552 9.16 399.405 9.16C401.058 9.16 402.432 9.45333 403.525 10.04C404.645 10.6267 405.458 11.5333 405.965 12.76H406.165C406.885 11.5333 407.858 10.6267 409.085 10.04C410.338 9.45333 411.658 9.16 413.045 9.16ZM435.028 9.2C437.641 9.2 439.574 9.77333 440.828 10.92C442.081 12.0667 442.708 13.8933 442.708 16.4V31H440.148L439.468 27.96H439.308C438.694 28.7333 438.054 29.3867 437.388 29.92C436.748 30.4267 436.001 30.8 435.148 31.04C434.321 31.28 433.308 31.4 432.108 31.4C430.828 31.4 429.668 31.1733 428.628 30.72C427.614 30.2667 426.814 29.5733 426.228 28.64C425.641 27.68 425.348 26.48 425.348 25.04C425.348 22.9067 426.188 21.2667 427.868 20.12C429.548 18.9467 432.134 18.3067 435.628 18.2L439.268 18.08V16.8C439.268 15.0133 438.881 13.7733 438.108 13.08C437.334 12.3867 436.241 12.04 434.828 12.04C433.708 12.04 432.641 12.2133 431.628 12.56C430.614 12.88 429.668 13.2533 428.788 13.68L427.708 11.04C428.641 10.5333 429.748 10.1067 431.028 9.76C432.308 9.38667 433.641 9.2 435.028 9.2ZM436.068 20.64C433.401 20.7467 431.548 21.1733 430.508 21.92C429.494 22.6667 428.988 23.72 428.988 25.08C428.988 26.28 429.348 27.16 430.068 27.72C430.814 28.28 431.761 28.56 432.908 28.56C434.721 28.56 436.228 28.0667 437.428 27.08C438.628 26.0667 439.228 24.52 439.228 22.44V20.52L436.068 20.64ZM452.85 9.56V31H449.33V9.56H452.85ZM451.13 1.52C451.663 1.52 452.13 1.70666 452.53 2.08C452.956 2.42666 453.17 2.98666 453.17 3.76C453.17 4.50666 452.956 5.06666 452.53 5.44C452.13 5.81333 451.663 6 451.13 6C450.543 6 450.05 5.81333 449.65 5.44C449.25 5.06666 449.05 4.50666 449.05 3.76C449.05 2.98666 449.25 2.42666 449.65 2.08C450.05 1.70666 450.543 1.52 451.13 1.52ZM463.162 31H459.642V0.599998H463.162V31ZM469.426 28.832C469.426 28.3372 469.491 27.9206 469.621 27.582C469.751 27.2305 469.927 26.9505 470.148 26.7422C470.37 26.5208 470.63 26.3646 470.93 26.2734C471.229 26.1693 471.555 26.1172 471.906 26.1172C472.245 26.1172 472.564 26.1693 472.863 26.2734C473.176 26.3646 473.443 26.5208 473.664 26.7422C473.885 26.9505 474.061 27.2305 474.191 27.582C474.322 27.9206 474.387 28.3372 474.387 28.832C474.387 29.3138 474.322 29.7305 474.191 30.082C474.061 30.4206 473.885 30.7005 473.664 30.9219C473.443 31.1432 473.176 31.306 472.863 31.4102C472.564 31.5143 472.245 31.5664 471.906 31.5664C471.555 31.5664 471.229 31.5143 470.93 31.4102C470.63 31.306 470.37 31.1432 470.148 30.9219C469.927 30.7005 469.751 30.4206 469.621 30.082C469.491 29.7305 469.426 29.3138 469.426 28.832ZM490.697 9.16C491.097 9.16 491.524 9.18667 491.977 9.24C492.457 9.26667 492.87 9.32 493.217 9.4L492.777 12.64C492.43 12.56 492.044 12.4933 491.617 12.44C491.217 12.3867 490.83 12.36 490.457 12.36C489.63 12.36 488.844 12.5333 488.097 12.88C487.35 13.2267 486.684 13.72 486.097 14.36C485.51 14.9733 485.044 15.72 484.697 16.6C484.377 17.48 484.217 18.4667 484.217 19.56V31H480.697V9.56H483.577L483.977 13.48H484.137C484.59 12.68 485.137 11.96 485.777 11.32C486.417 10.6533 487.15 10.1333 487.977 9.76C488.804 9.36 489.71 9.16 490.697 9.16ZM515.14 9.56V31H512.26L511.74 28.16H511.58C511.127 28.9067 510.54 29.52 509.82 30C509.1 30.48 508.314 30.8267 507.46 31.04C506.607 31.28 505.714 31.4 504.78 31.4C503.074 31.4 501.634 31.1333 500.46 30.6C499.314 30.04 498.447 29.1867 497.86 28.04C497.274 26.8933 496.98 25.4133 496.98 23.6V9.56H500.54V23.36C500.54 25.0667 500.927 26.3467 501.7 27.2C502.474 28.0533 503.674 28.48 505.3 28.48C506.9 28.48 508.154 28.1867 509.06 27.6C509.994 26.9867 510.647 26.1067 511.02 24.96C511.42 23.7867 511.62 22.3733 511.62 20.72V9.56H515.14ZM7.55078 86.3633H-0.0078125V83.4336H7.55078V75.8359H10.4805V83.4336H18.0391V86.3633H10.4805V93.8828H7.55078V86.3633ZM25.5195 99L36.5156 73.6875H21.7891V70.4453H40.1484V73.2773L29.3086 99H25.5195ZM54.0547 88.043C54.0547 86.4154 54.1719 84.8138 54.4062 83.2383C54.6406 81.6497 54.9987 80.1133 55.4805 78.6289C55.9622 77.1315 56.5677 75.6992 57.2969 74.332C58.0391 72.9518 58.918 71.6562 59.9336 70.4453H63.293C61.4701 72.9583 60.0833 75.7188 59.1328 78.7266C58.1953 81.7344 57.7266 84.8268 57.7266 88.0039C57.7266 89.5534 57.8438 91.0964 58.0781 92.6328C58.3255 94.1693 58.6771 95.6732 59.1328 97.1445C59.6016 98.6159 60.181 100.042 60.8711 101.422C61.5612 102.802 62.3555 104.104 63.2539 105.328H59.9336C58.918 104.156 58.0391 102.9 57.2969 101.559C56.5677 100.217 55.9622 98.8177 55.4805 97.3594C54.9987 95.888 54.6406 94.3711 54.4062 92.8086C54.1719 91.2461 54.0547 89.6576 54.0547 88.043ZM84.5625 82.6328C84.5625 84 84.4909 85.3672 84.3477 86.7344C84.2174 88.0885 83.9766 89.3841 83.625 90.6211C83.2865 91.8581 82.8177 93.0169 82.2188 94.0977C81.6198 95.1654 80.8581 96.0898 79.9336 96.8711C79.0091 97.6523 77.9023 98.2708 76.6133 98.7266C75.3242 99.1693 73.8138 99.3906 72.082 99.3906C71.8346 99.3906 71.5612 99.3841 71.2617 99.3711C70.9622 99.3581 70.6628 99.332 70.3633 99.293C70.0638 99.2669 69.7708 99.2344 69.4844 99.1953C69.1979 99.1562 68.944 99.1042 68.7227 99.0391V95.9922C69.1784 96.1615 69.6927 96.2852 70.2656 96.3633C70.8385 96.4414 71.4049 96.4805 71.9648 96.4805C73.7227 96.4805 75.168 96.1745 76.3008 95.5625C77.4336 94.9505 78.332 94.1237 78.9961 93.082C79.6602 92.0273 80.1289 90.8034 80.4023 89.4102C80.6888 88.0169 80.8646 86.5456 80.9297 84.9961H80.6758C80.4154 85.4648 80.1029 85.901 79.7383 86.3047C79.3737 86.7083 78.944 87.0599 78.4492 87.3594C77.9544 87.6589 77.3945 87.8932 76.7695 88.0625C76.1445 88.2318 75.4479 88.3164 74.6797 88.3164C73.4427 88.3164 72.3229 88.1276 71.3203 87.75C70.3177 87.3594 69.4648 86.793 68.7617 86.0508C68.0586 85.3086 67.5117 84.4036 67.1211 83.3359C66.7435 82.2552 66.5547 81.0247 66.5547 79.6445C66.5547 78.1602 66.7565 76.8255 67.1602 75.6406C67.5768 74.4427 68.1562 73.4336 68.8984 72.6133C69.6536 71.7799 70.5651 71.1419 71.6328 70.6992C72.7135 70.2565 73.918 70.0352 75.2461 70.0352C76.5612 70.0352 77.7852 70.2891 78.918 70.7969C80.0508 71.3047 81.0339 72.0794 81.8672 73.1211C82.7005 74.1628 83.3581 75.4779 83.8398 77.0664C84.3216 78.6419 84.5625 80.4974 84.5625 82.6328ZM75.2852 73.043C74.5039 73.043 73.7878 73.1732 73.1367 73.4336C72.4987 73.694 71.9453 74.0977 71.4766 74.6445C71.0078 75.1914 70.6432 75.8815 70.3828 76.7148C70.1354 77.5352 70.0117 78.5117 70.0117 79.6445C70.0117 80.556 70.1159 81.3763 70.3242 82.1055C70.5456 82.8216 70.8711 83.4336 71.3008 83.9414C71.7305 84.4492 72.2643 84.8398 72.9023 85.1133C73.5534 85.3867 74.3086 85.5234 75.168 85.5234C76.0534 85.5234 76.8542 85.3737 77.5703 85.0742C78.2865 84.7617 78.8984 84.3646 79.4062 83.8828C79.9141 83.388 80.3047 82.8281 80.5781 82.2031C80.8646 81.5781 81.0078 80.9531 81.0078 80.3281C81.0078 79.4557 80.8841 78.5898 80.6367 77.7305C80.4023 76.8581 80.0443 76.0768 79.5625 75.3867C79.0938 74.6836 78.5013 74.1172 77.7852 73.6875C77.069 73.2578 76.2357 73.043 75.2852 73.043ZM97.1602 81.4805C98.4492 81.4805 99.6471 81.6628 100.754 82.0273C101.874 82.3789 102.844 82.9062 103.664 83.6094C104.497 84.3125 105.148 85.1849 105.617 86.2266C106.086 87.2682 106.32 88.4727 106.32 89.8398C106.32 91.3242 106.099 92.6589 105.656 93.8438C105.214 95.0286 104.556 96.0312 103.684 96.8516C102.811 97.6719 101.73 98.3034 100.441 98.7461C99.1654 99.1758 97.694 99.3906 96.0273 99.3906C95.3633 99.3906 94.7057 99.3581 94.0547 99.293C93.4167 99.2279 92.7982 99.1302 92.1992 99C91.6133 98.8828 91.0534 98.7266 90.5195 98.5312C89.9857 98.3359 89.5039 98.1081 89.0742 97.8477V94.4883C89.5039 94.7878 90.0052 95.0547 90.5781 95.2891C91.1641 95.5234 91.776 95.7188 92.4141 95.875C93.0521 96.0312 93.6901 96.1549 94.3281 96.2461C94.9792 96.3242 95.5781 96.3633 96.125 96.3633C97.1536 96.3633 98.0716 96.2461 98.8789 96.0117C99.6862 95.7643 100.37 95.3867 100.93 94.8789C101.49 94.3711 101.919 93.7331 102.219 92.9648C102.518 92.1966 102.668 91.2852 102.668 90.2305C102.668 88.3685 102.095 86.9492 100.949 85.9727C99.8034 84.9831 98.1367 84.4883 95.9492 84.4883C95.5977 84.4883 95.2135 84.5078 94.7969 84.5469C94.3932 84.5729 93.9831 84.612 93.5664 84.6641C93.1628 84.7161 92.7721 84.7747 92.3945 84.8398C92.0299 84.8919 91.7109 84.944 91.4375 84.9961L89.6797 83.8828L90.7539 70.4453H104.23V73.6875H93.8398L93.0781 81.8711C93.4948 81.793 94.0417 81.7083 94.7188 81.6172C95.4089 81.526 96.2227 81.4805 97.1602 81.4805ZM128.234 99H110.422V95.9531L117.258 88.5117C118.234 87.457 119.107 86.4935 119.875 85.6211C120.643 84.7487 121.294 83.8958 121.828 83.0625C122.375 82.2292 122.792 81.3958 123.078 80.5625C123.365 79.7161 123.508 78.7982 123.508 77.8086C123.508 77.0404 123.397 76.3633 123.176 75.7773C122.954 75.1914 122.635 74.6966 122.219 74.293C121.815 73.8763 121.333 73.5638 120.773 73.3555C120.214 73.1471 119.589 73.043 118.898 73.043C117.661 73.043 116.542 73.2969 115.539 73.8047C114.549 74.2995 113.605 74.9375 112.707 75.7188L110.715 73.3945C111.236 72.9258 111.796 72.4896 112.395 72.0859C112.993 71.6693 113.638 71.3112 114.328 71.0117C115.018 70.7122 115.747 70.4779 116.516 70.3086C117.284 70.1263 118.091 70.0352 118.938 70.0352C120.188 70.0352 121.314 70.2109 122.316 70.5625C123.332 70.9141 124.191 71.4219 124.895 72.0859C125.598 72.737 126.138 73.5378 126.516 74.4883C126.906 75.4258 127.102 76.487 127.102 77.6719C127.102 78.7786 126.926 79.8333 126.574 80.8359C126.236 81.8385 125.76 82.8281 125.148 83.8047C124.549 84.7682 123.827 85.7383 122.98 86.7148C122.147 87.6914 121.242 88.707 120.266 89.7617L114.777 95.6016V95.7578H128.234V99ZM141.027 88.043C141.027 89.6576 140.91 91.2461 140.676 92.8086C140.441 94.3711 140.077 95.888 139.582 97.3594C139.1 98.8177 138.488 100.217 137.746 101.559C137.017 102.9 136.145 104.156 135.129 105.328H131.809C132.707 104.104 133.501 102.802 134.191 101.422C134.882 100.042 135.461 98.6159 135.93 97.1445C136.398 95.6732 136.75 94.1693 136.984 92.6328C137.219 91.0964 137.336 89.5534 137.336 88.0039C137.336 84.8268 136.867 81.7344 135.93 78.7266C134.992 75.7188 133.605 72.9583 131.77 70.4453H135.129C136.145 71.6562 137.017 72.9518 137.746 74.332C138.488 75.6992 139.1 77.1315 139.582 78.6289C140.077 80.1133 140.441 81.6497 140.676 83.2383C140.91 84.8138 141.027 86.4154 141.027 88.043ZM166.887 99H163.449V81.168C163.449 80.6081 163.449 80.0091 163.449 79.3711C163.462 78.7331 163.475 78.1016 163.488 77.4766C163.514 76.8385 163.534 76.2331 163.547 75.6602C163.573 75.0742 163.592 74.5599 163.605 74.1172C163.384 74.3516 163.189 74.5534 163.02 74.7227C162.85 74.8919 162.674 75.0547 162.492 75.2109C162.323 75.3672 162.141 75.5365 161.945 75.7188C161.75 75.888 161.516 76.0898 161.242 76.3242L158.352 78.6875L156.477 76.2852L163.957 70.4453H166.887V99ZM180.52 99L191.516 73.6875H176.789V70.4453H195.148V73.2773L184.309 99H180.52ZM216.75 99H198.938V95.9531L205.773 88.5117C206.75 87.457 207.622 86.4935 208.391 85.6211C209.159 84.7487 209.81 83.8958 210.344 83.0625C210.891 82.2292 211.307 81.3958 211.594 80.5625C211.88 79.7161 212.023 78.7982 212.023 77.8086C212.023 77.0404 211.913 76.3633 211.691 75.7773C211.47 75.1914 211.151 74.6966 210.734 74.293C210.331 73.8763 209.849 73.5638 209.289 73.3555C208.729 73.1471 208.104 73.043 207.414 73.043C206.177 73.043 205.057 73.2969 204.055 73.8047C203.065 74.2995 202.121 74.9375 201.223 75.7188L199.23 73.3945C199.751 72.9258 200.311 72.4896 200.91 72.0859C201.509 71.6693 202.154 71.3112 202.844 71.0117C203.534 70.7122 204.263 70.4779 205.031 70.3086C205.799 70.1263 206.607 70.0352 207.453 70.0352C208.703 70.0352 209.829 70.2109 210.832 70.5625C211.848 70.9141 212.707 71.4219 213.41 72.0859C214.113 72.737 214.654 73.5378 215.031 74.4883C215.422 75.4258 215.617 76.487 215.617 77.6719C215.617 78.7786 215.441 79.8333 215.09 80.8359C214.751 81.8385 214.276 82.8281 213.664 83.8047C213.065 84.7682 212.342 85.7383 211.496 86.7148C210.663 87.6914 209.758 88.707 208.781 89.7617L203.293 95.6016V95.7578H216.75V99ZM220.695 89.918V86.6367H230.383V89.918H220.695ZM243.02 69.9961C244.113 69.9961 245.142 70.1393 246.105 70.4258C247.082 70.7122 247.935 71.1419 248.664 71.7148C249.406 72.2878 249.992 73.0039 250.422 73.8633C250.852 74.7227 251.066 75.7253 251.066 76.8711C251.066 77.7435 250.936 78.5312 250.676 79.2344C250.415 79.9375 250.057 80.5755 249.602 81.1484C249.146 81.7083 248.605 82.2161 247.98 82.6719C247.355 83.1146 246.678 83.5182 245.949 83.8828C246.704 84.2865 247.44 84.7357 248.156 85.2305C248.885 85.7253 249.53 86.2852 250.09 86.9102C250.663 87.5221 251.118 88.2122 251.457 88.9805C251.809 89.7487 251.984 90.6081 251.984 91.5586C251.984 92.7565 251.763 93.8438 251.32 94.8203C250.891 95.7839 250.279 96.6042 249.484 97.2812C248.703 97.9583 247.759 98.4792 246.652 98.8438C245.559 99.2083 244.348 99.3906 243.02 99.3906C241.587 99.3906 240.311 99.2148 239.191 98.8633C238.085 98.5117 237.147 98.0104 236.379 97.3594C235.624 96.6953 235.044 95.888 234.641 94.9375C234.25 93.987 234.055 92.9128 234.055 91.7148C234.055 90.7383 234.198 89.8594 234.484 89.0781C234.784 88.2969 235.181 87.5938 235.676 86.9688C236.171 86.3438 236.757 85.7904 237.434 85.3086C238.111 84.8268 238.827 84.4036 239.582 84.0391C238.944 83.6354 238.345 83.1992 237.785 82.7305C237.225 82.2487 236.737 81.7148 236.32 81.1289C235.917 80.543 235.591 79.8984 235.344 79.1953C235.109 78.4792 234.992 77.6914 234.992 76.832C234.992 75.6992 235.207 74.7096 235.637 73.8633C236.079 73.0039 236.672 72.2878 237.414 71.7148C238.156 71.1419 239.009 70.7122 239.973 70.4258C240.949 70.1393 241.965 69.9961 243.02 69.9961ZM237.551 91.7539C237.551 92.444 237.655 93.082 237.863 93.668C238.072 94.2409 238.397 94.7357 238.84 95.1523C239.283 95.556 239.842 95.875 240.52 96.1094C241.197 96.3307 242.004 96.4414 242.941 96.4414C243.853 96.4414 244.654 96.3307 245.344 96.1094C246.047 95.875 246.633 95.5495 247.102 95.1328C247.57 94.7031 247.922 94.1888 248.156 93.5898C248.391 92.9909 248.508 92.3268 248.508 91.5977C248.508 90.9206 248.378 90.3086 248.117 89.7617C247.87 89.2148 247.505 88.707 247.023 88.2383C246.555 87.7695 245.988 87.3268 245.324 86.9102C244.66 86.4935 243.918 86.0833 243.098 85.6797L242.512 85.4062C240.871 86.1875 239.634 87.0859 238.801 88.1016C237.967 89.1042 237.551 90.3216 237.551 91.7539ZM242.98 72.9648C241.6 72.9648 240.5 73.3099 239.68 74C238.872 74.6901 238.469 75.6927 238.469 77.0078C238.469 77.75 238.579 78.388 238.801 78.9219C239.035 79.4557 239.354 79.931 239.758 80.3477C240.161 80.7643 240.643 81.1419 241.203 81.4805C241.776 81.806 242.395 82.125 243.059 82.4375C243.684 82.151 244.27 81.8385 244.816 81.5C245.376 81.1615 245.858 80.7773 246.262 80.3477C246.678 79.918 247.004 79.4297 247.238 78.8828C247.473 78.3359 247.59 77.7109 247.59 77.0078C247.59 75.6927 247.18 74.6901 246.359 74C245.539 73.3099 244.413 72.9648 242.98 72.9648ZM264.66 81.4805C265.949 81.4805 267.147 81.6628 268.254 82.0273C269.374 82.3789 270.344 82.9062 271.164 83.6094C271.997 84.3125 272.648 85.1849 273.117 86.2266C273.586 87.2682 273.82 88.4727 273.82 89.8398C273.82 91.3242 273.599 92.6589 273.156 93.8438C272.714 95.0286 272.056 96.0312 271.184 96.8516C270.311 97.6719 269.23 98.3034 267.941 98.7461C266.665 99.1758 265.194 99.3906 263.527 99.3906C262.863 99.3906 262.206 99.3581 261.555 99.293C260.917 99.2279 260.298 99.1302 259.699 99C259.113 98.8828 258.553 98.7266 258.02 98.5312C257.486 98.3359 257.004 98.1081 256.574 97.8477V94.4883C257.004 94.7878 257.505 95.0547 258.078 95.2891C258.664 95.5234 259.276 95.7188 259.914 95.875C260.552 96.0312 261.19 96.1549 261.828 96.2461C262.479 96.3242 263.078 96.3633 263.625 96.3633C264.654 96.3633 265.572 96.2461 266.379 96.0117C267.186 95.7643 267.87 95.3867 268.43 94.8789C268.99 94.3711 269.419 93.7331 269.719 92.9648C270.018 92.1966 270.168 91.2852 270.168 90.2305C270.168 88.3685 269.595 86.9492 268.449 85.9727C267.303 84.9831 265.637 84.4883 263.449 84.4883C263.098 84.4883 262.714 84.5078 262.297 84.5469C261.893 84.5729 261.483 84.612 261.066 84.6641C260.663 84.7161 260.272 84.7747 259.895 84.8398C259.53 84.8919 259.211 84.944 258.938 84.9961L257.18 83.8828L258.254 70.4453H271.73V73.6875H261.34L260.578 81.8711C260.995 81.793 261.542 81.7083 262.219 81.6172C262.909 81.526 263.723 81.4805 264.66 81.4805ZM277.648 89.918V86.6367H287.336V89.918H277.648ZM299.582 81.4805C300.871 81.4805 302.069 81.6628 303.176 82.0273C304.296 82.3789 305.266 82.9062 306.086 83.6094C306.919 84.3125 307.57 85.1849 308.039 86.2266C308.508 87.2682 308.742 88.4727 308.742 89.8398C308.742 91.3242 308.521 92.6589 308.078 93.8438C307.635 95.0286 306.978 96.0312 306.105 96.8516C305.233 97.6719 304.152 98.3034 302.863 98.7461C301.587 99.1758 300.116 99.3906 298.449 99.3906C297.785 99.3906 297.128 99.3581 296.477 99.293C295.839 99.2279 295.22 99.1302 294.621 99C294.035 98.8828 293.475 98.7266 292.941 98.5312C292.408 98.3359 291.926 98.1081 291.496 97.8477V94.4883C291.926 94.7878 292.427 95.0547 293 95.2891C293.586 95.5234 294.198 95.7188 294.836 95.875C295.474 96.0312 296.112 96.1549 296.75 96.2461C297.401 96.3242 298 96.3633 298.547 96.3633C299.576 96.3633 300.493 96.2461 301.301 96.0117C302.108 95.7643 302.792 95.3867 303.352 94.8789C303.911 94.3711 304.341 93.7331 304.641 92.9648C304.94 92.1966 305.09 91.2852 305.09 90.2305C305.09 88.3685 304.517 86.9492 303.371 85.9727C302.225 84.9831 300.559 84.4883 298.371 84.4883C298.02 84.4883 297.635 84.5078 297.219 84.5469C296.815 84.5729 296.405 84.612 295.988 84.6641C295.585 84.7161 295.194 84.7747 294.816 84.8398C294.452 84.8919 294.133 84.944 293.859 84.9961L292.102 83.8828L293.176 70.4453H306.652V73.6875H296.262L295.5 81.8711C295.917 81.793 296.464 81.7083 297.141 81.6172C297.831 81.526 298.645 81.4805 299.582 81.4805ZM321.613 81.4805C322.902 81.4805 324.1 81.6628 325.207 82.0273C326.327 82.3789 327.297 82.9062 328.117 83.6094C328.951 84.3125 329.602 85.1849 330.07 86.2266C330.539 87.2682 330.773 88.4727 330.773 89.8398C330.773 91.3242 330.552 92.6589 330.109 93.8438C329.667 95.0286 329.009 96.0312 328.137 96.8516C327.264 97.6719 326.184 98.3034 324.895 98.7461C323.618 99.1758 322.147 99.3906 320.48 99.3906C319.816 99.3906 319.159 99.3581 318.508 99.293C317.87 99.2279 317.251 99.1302 316.652 99C316.066 98.8828 315.507 98.7266 314.973 98.5312C314.439 98.3359 313.957 98.1081 313.527 97.8477V94.4883C313.957 94.7878 314.458 95.0547 315.031 95.2891C315.617 95.5234 316.229 95.7188 316.867 95.875C317.505 96.0312 318.143 96.1549 318.781 96.2461C319.432 96.3242 320.031 96.3633 320.578 96.3633C321.607 96.3633 322.525 96.2461 323.332 96.0117C324.139 95.7643 324.823 95.3867 325.383 94.8789C325.943 94.3711 326.372 93.7331 326.672 92.9648C326.971 92.1966 327.121 91.2852 327.121 90.2305C327.121 88.3685 326.548 86.9492 325.402 85.9727C324.257 84.9831 322.59 84.4883 320.402 84.4883C320.051 84.4883 319.667 84.5078 319.25 84.5469C318.846 84.5729 318.436 84.612 318.02 84.6641C317.616 84.7161 317.225 84.7747 316.848 84.8398C316.483 84.8919 316.164 84.944 315.891 84.9961L314.133 83.8828L315.207 70.4453H328.684V73.6875H318.293L317.531 81.8711C317.948 81.793 318.495 81.7083 319.172 81.6172C319.862 81.526 320.676 81.4805 321.613 81.4805Z" fill="white"/>
</svg>
